<?xml version="1.0" encoding="utf-8"?>
<!-- Generator: Adobe Illustrator 19.0.0, SVG Export Plug-In . SVG Version: 6.00 Build 0)  -->
<!DOCTYPE svg PUBLIC "-//W3C//DTD SVG 1.1//EN" "http://www.w3.org/Graphics/SVG/1.1/DTD/svg11.dtd">
<svg version="1.1" id="Layer_1" xmlns="http://www.w3.org/2000/svg" xmlns:xlink="http://www.w3.org/1999/xlink" x="0px" y="0px"
	 width="306.39px" height="54.614px" viewBox="64.164 245.111 306.39 54.614" enable-background="new 64.164 245.111 306.39 54.614"
	 xml:space="preserve">
<g id="XMLID_2_">
	<path id="XMLID_3_" fill="#BE9A79" d="M115.233,291.765c-1.351,4.48,1.778,5.689,5.191,4.195c1.564-0.711,3.484-1.636,4.906-2.773
		c4.906-3.911,5.262-5.404,7.537-9.813c0.782-1.564,0.853-1.92,0.853-2.987c0-0.782-0.427-2.204-1.493-2.133
		c-1.209,0.071-2.915,1.209-3.769,2.133c-0.498,0.498-0.853,2.204-0.782,2.489c-0.853-2.845,1.635-5.404,3.626-5.831
		c0.996-0.213,1.991-0.142,2.987,0.213c1.635,0.853,1.351,5.191,0.213,7.395c-2.347,4.48-2.275,4.835-5.76,9.315
		c-1.707,2.204-4.978,3.697-7.751,4.906c-1.635,0.711-3.058,0.995-4.338,0.782c-0.569-0.071-1.209-0.64-1.92-1.635
		c-1.422-1.991-2.844-5.76-1.493-10.88c0.569-2.204,2.275-5.76,5.12-10.808c-0.569,0.071-0.925,0.142-1.991,0.142
		c-1.067,0-1.138,0-1.991,0.213c-0.427,0.071-0.782,0.142-1.066,0.142h-0.071h-0.071c-1.493,0.142-3.129,0.071-4.835-0.213
		c-3.911,4.053-7.822,8.533-9.955,10.95c-1.067,1.209-1.707,1.92-1.849,2.133c-0.071,0.071-0.356,0.355-0.782,0.853
		c-0.924,1.067-0.995,0.995-2.133,1.991c-1.138,0.995-1.849,1.493-3.484,2.489c-0.782,0.498-1.635,0.996-2.56,1.494
		c-5.333,2.773-11.377,3.342-15.075,1.991c-2.915-0.925-5.191-2.773-6.968-5.546c-1.351-1.991-1.778-4.978-0.925-6.4
		c0.64-1.138,4.622-1.493,4.978-0.995c0.782,0.498,0.498,1.138-0.925,1.351c-0.782,0.071-1.28,0.213-1.351,0.427
		c-0.569,0.498,0,2.986,1.351,4.48c1.707,1.991,4.409,3.484,6.897,3.84c2.347,0.285,4.48-0.213,9.244-1.849l0.498-0.213
		c1.849-1.209,4.124-3.129,6.897-5.902c2.702-2.773,6.613-6.897,11.733-12.444c-2.204-1.067-3.982-2.631-5.262-4.622
		c-1.138-1.707-0.711-4.48,0.213-6.968c0.853-2.489,2.986-4.764,5.191-5.547c2.631-0.782,4.764-0.071,6.044,1.209
		s1.92,2.702,1.849,3.271c-0.356,2.062-2.062,3.982-3.769,4.48c-0.356,0.071-1.564-0.142-1.778-0.213
		c0-0.071,0.498-0.498,0.782-0.711c1.778-0.925,1.849-0.64,1.92-3.271c0-0.498-0.071-0.853-0.142-1.067
		c0-0.071-0.071-0.213-0.142-0.284c-0.142-0.071-0.213-0.142-0.213-0.213l-0.355-0.355c-0.284-0.213-1.28-0.64-2.347-0.071
		c-2.844,1.422-4.409,3.982-4.195,6.755c0.213,2.56,2.204,4.764,4.195,5.333l0.071,0.071c5.831-6.329,10.382-11.235,13.724-14.719
		c3.627-3.911,6.897-6.897,10.808-9.742c3.911-2.844,7.466-4.195,9.955-3.128c1.778,1.066,1.493,3.342-0.284,6.186
		c-1.778,2.916-4.195,5.76-6.471,7.751c-1.351,1.209-3.2,3.768-5.689,7.608C121.277,277.615,117.01,285.864,115.233,291.765z
		 M115.659,273.064c0.356,0,3.84,0.355,4.338,0.427c3.627-6.186,8.888-14.221,12.586-17.635l2.987-2.489
		c1.564-1.209,2.702-2.204,3.413-2.986c0.498-0.498,1.067-0.924,1.564-1.209c-0.213,0.071-0.498,0.071-0.995,0
		c-0.995-0.071-1.991,0-2.489,0.355c-8.106,6.542-16.639,14.506-25.599,23.821c0.64-0.071,1.067-0.071,1.422-0.142L115.659,273.064z
		"/>
	<path id="XMLID_6_" fill="#BE9A79" d="M138.629,290.343c-1.066,4.409,1.138,4.124,3.555,3.2c2.418-0.853,4.693-2.773,6.4-4.337
		c0.853-0.782,1.707-1.564,2.489-2.418l1.28-1.28c2.275-2.062,3.911-3.413,4.977-4.053c0.925-0.569,1.493-0.853,1.564-0.853
		s0.071,0.071,0.071,0.142c-0.071,0.142-0.071,0.284-0.071,0.498c-0.071,0.213-0.142,0.355-0.213,0.427
		c-0.071,0.071-0.569,0.711-1.564,1.849c-0.213,0.356-0.64,0.924-1.138,1.707l-1.209,1.849c-0.213,0.213-0.427,0.427-0.711,0.782
		l-0.711,0.711c-0.071,0.071-0.213,0.285-0.284,0.498l-0.355,0.498c-0.142,0.213-0.427,0.427-0.782,0.782
		c-0.782,0.711-2.347,2.275-3.982,3.555s-3.769,2.56-5.688,3.271c-1.92,0.711-4.053,0.711-5.475-0.427
		c-1.707-1.209-2.347-3.413-1.778-6.044c0.569-2.631,1.066-4.48,2.489-7.111l1.351-2.489c0.142-0.355,0.427-0.782,0.782-1.351
		c0.782-1.209,2.773-3.982,3.555-4.836c0.569-0.569,3.2-2.631,3.84-2.915c0.498-0.284,1.778-0.355,1.991-0.142
		c0.356,0.213,0.498,0.569,0.569,0.995c0,0.213,0,0.356-0.071,0.427l-0.071,0.071c-0.071,0.071-0.214,0.142-0.284,0.214
		l-0.213,0.284c-1.209,1.28-1.849,1.92-1.849,1.991c-0.356,0.356-1.351,1.422-1.636,1.778l-0.569,0.853
		c-0.214,0.356-0.427,0.711-0.64,0.924c0,0.071,0,0.071-0.071,0.071C141.117,283.943,139.695,285.934,138.629,290.343z
		 M155.695,258.416c1.493-0.071,2.844,1.849,1.991,3.84c-0.071,0.142-0.356,0.498-0.853,1.067c-0.071,0.071-0.142,0.142-0.213,0.285
		c-0.142,0.213-0.284,0.284-0.355,0.355c-2.773,1.707-5.262,0.071-5.333-2.204c-0.213-1.706,0.569-2.489,1.778-3.342
		c0.64-0.427,0.995-0.64,1.209-0.711c0.284-0.071,1.138,0.213,1.209,0.427c0.071,0.071,0.142,0.214,0.213,0.356
		C155.481,258.416,155.623,258.416,155.695,258.416z M154.415,261.26v0.142c-0.071,0.071,0,0.071,0.142,0.142
		C154.486,261.403,154.415,261.332,154.415,261.26z M155.552,259.554c0,0.071,0,0.142-0.071,0.284
		c-0.214,0.214-0.569,0.782-0.64,0.995c-0.071,0-0.142,0.142-0.355,0.427c0.071-0.071,0.142-0.142,0.427-0.213l0.284-0.213
		c0.64-0.284,0.853-0.711,0.711-1.209c0-0.071-0.142-0.142-0.356-0.285V259.554z"/>
	<path id="XMLID_11_" fill="#BE9A79" d="M149.152,291.837c0.071-0.214,0.284-0.569,0.569-0.995c0.569-0.854,0.64-0.995,0.924-1.564
		c0.071-0.285,0.142-0.498,0.213-0.64l1.707-2.773c0.782-1.28,1.422-2.276,1.778-2.916l0.925-1.564
		c0.427-0.64,0.64-1.066,0.711-1.137c0.142-0.214,0.355-0.569,0.569-0.995l0.64-1.067c0.356-0.569,0.64-0.995,1.28-1.849
		c0.64-0.853,0.782-0.995,1.138-1.493l0.427-0.64c0.213-0.285,0.355-0.569,0.995-0.924c0.64-0.285,0.853-0.214,1.351,0
		c0.782,0.498,0.711,0.568,0.498,1.351c-0.213,0.64-0.569,1.564-1.138,2.702c-0.284,0.64-1.209,2.204-1.422,2.418l-0.427,0.924
		c-0.213,0.498-0.427,0.853-0.64,1.209c-0.071,0.071-0.071,0.071-0.071,0.142c-0.427,0.64-0.853,1.422-1.351,2.204
		c4.764-4.551,8.817-8.249,12.159-10.168c3.342-1.92,6.4-2.56,7.253-0.284c1.209,2.773,1.778,5.902,1.92,7.253
		c0.142,1.351,0.427,0.924,0.995,0.854c0.498-0.071,1.28-0.427,1.636-0.64c0.213-0.071,0.498-0.285,0.853-0.498l0.782-0.498
		c0.071-0.071,0.356-0.214,0.782-0.569c0.427-0.285,0.64-0.427,0.711-0.427c0.924-0.64,1.493-0.924,1.707-0.854
		c0.142,0.071,0.071,0.356-0.285,0.995c-0.355,0.498-0.853,1.209-1.635,2.062c-0.071,0.071-0.284,0.213-0.498,0.498
		c-0.569,0.64-0.711,0.782-1.28,1.28c-0.64,0.569-0.995,0.853-1.778,1.138c-0.355,0.213-0.782,0.355-1.138,0.427
		c-0.925,0.213-1.92-0.071-3.129-0.854c-1.209-0.782-1.564-1.351-2.204-3.128c-0.64-1.707-1.707-5.191-0.853-7.537
		c-0.213,0.498-0.853,1.351-1.92,2.559c-1.138,1.351-2.702,2.845-4.622,4.551c-4.835,4.195-8.604,7.751-11.306,10.666
		c-0.498,0.569-1.778,1.92-2.275,2.418c-0.213,0.213-0.569,0.64-1.067,1.137c-0.924,1.138-1.138,1.351-1.849,1.92
		c-0.711,0.64-0.782,0.711-1.28,1.28c-0.569,0.569-0.924,0.924-1.707,0.64c-0.498-0.071-1.209-0.427-1.28-0.711
		c-0.071-0.071,0-0.284,0.071-0.569c0.142-0.569,0.498-1.28,1.138-2.133c0.071-0.071,0.142-0.213,0.214-0.355
		C148.584,293.045,148.939,292.121,149.152,291.837z"/>
	<path id="XMLID_13_" fill="#BE9A79" d="M210.163,251.803c-0.925,2.56-2.204,5.191-3.769,7.822l-0.711,0.995
		c-0.355,0.498-0.568,0.924-0.782,1.137c-0.071,0.142-0.214,0.356-0.355,0.711l-0.498,0.853c-0.64,0.924-2.418,3.271-5.333,7.04
		c-1.422,1.707-4.906,5.689-6.399,7.04c-1.067,0.925-5.12,3.982-6.186,4.551c-0.924,0.498-1.849,0.711-2.773,0.782
		c-0.924,2.773-1.493,5.333-1.564,7.822c-0.071,2.062,1.351,4.267,3.626,5.333c4.622,2.204,9.386-1.209,13.368-5.475
		c1.92-2.062,3.555-4.338,4.764-6.755c0.142-0.355,0.284-0.64,0.355-0.924c-1.92-1.636-3.342-3.413-3.555-7.111
		c-0.071-0.924,0.071-1.707,0.284-2.346c0.142-0.214,0.498-0.498,1.067-0.854c1.067-0.64,3.058-1.209,5.262,0
		c1.777,0.924,2.346,4.764,1.422,7.893c-0.213,0.853-0.498,1.706-0.853,2.56c0.213,0.142,0.498,0.284,0.711,0.355
		c3.484,1.636,6.684-0.071,10.311-2.773c1.777-1.351,2.702-1.991,2.702-2.062c0.071,0-0.071,0.213-0.356,0.64
		c-0.64,0.924-1.849,2.418-2.702,3.058c-2.916,2.346-5.546,3.413-7.964,3.342c-1.137-0.071-2.275-0.355-3.413-0.853
		c-2.631,5.618-8.319,13.226-16.354,15.288c-2.56,0.64-5.12,0.142-7.751-1.422c-2.56-1.636-4.551-4.267-4.266-6.258
		c0.853-6.542,2.915-13.012,5.191-17.492c1.138-2.204,1.991-3.84,2.631-4.907l1.706-2.631c2.204-3.058,5.973-7.608,8.32-9.955
		c1.422-1.422,6.968-6.044,8.39-6.968c0.711-0.427,1.636-0.924,2.773-1.422c0.213-0.213,0.427-0.285,0.64-0.355
		c0.071,0,0.071,0,0.142,0l0.498-0.142c0.356,0,0.569,0.142,0.711,0.355c0.071,0.071,0.071,0.142,0.071,0.213
		C210.163,249.528,210.448,250.737,210.163,251.803z M192.813,271.642l0.142-0.142c7.04-8.462,10.666-12.871,10.879-13.155
		c1.991-2.56,4.551-6.399,5.12-8.32l-0.64,0.64c-0.355,0.356-0.64,0.569-0.782,0.711c-2.986,2.773-4.764,4.409-5.404,5.049
		l-1.422,1.351c-0.64,0.64-1.137,1.138-1.635,1.564c-0.925,0.924-1.422,1.422-2.702,3.058c-0.64,0.782-1.209,1.422-1.564,1.849
		l-0.142,0.214c-3.2,3.982-5.973,7.964-8.319,11.946c-0.64,1.067-1.138,2.133-1.636,3.2c1.28-1.067,2.204-1.92,2.844-2.489
		c0.214-0.285,0.711-0.782,1.493-1.422c1.422-1.351,1.707-1.564,2.631-2.702L192.813,271.642z M205.47,276.691
		c-0.071-1.92-1.138-2.347-1.707-2.062c-0.284,0.142-0.427,0.427-0.498,0.853c-0.071,1.707,0.711,3.342,1.636,4.764
		C205.257,278.824,205.47,277.615,205.47,276.691z"/>
	<path id="XMLID_17_" fill="#BE9A79" d="M208.173,295.178c-0.071-0.355,2.844-4.977,6.471-9.315
		c1.636-2.489,1.991-2.916,3.413-4.551c1.351-1.636,1.351-1.636,2.773-3.627c1.351-1.991,1.777-2.56,3.698-4.053
		c0.142-0.214,0.284-0.285,0.355-0.285c0-0.071,0-0.071,0.071-0.071c0.498-0.285,0.853-0.498,1.209-0.142
		c0.214,0.213,0.214,0.924,0.142,1.209c-0.071,0.071-0.142,0.213-0.355,0.569c-0.071,0.356-0.214,0.711-0.285,0.924
		c-0.355,0.995-1.137,2.631-2.418,4.907l-0.711,1.138c2.275-2.276,4.906-4.622,7.822-7.111c2.773-2.347,6.755-3.911,8.746-2.773
		c1.706,1.067,2.346,2.631,2.062,4.551c-0.285,1.92-0.64,2.915-1.493,4.835c-0.782,1.707-2.418,5.476-3.2,7.111
		c-0.782,1.707-1.636,4.053-2.133,5.546c-0.213,0.925-0.284,1.422-0.213,1.493c0.071,0,0.071,0,0.142-0.071
		c1.707-0.285,4.622-1.991,6.329-3.2c5.759-3.982,10.168-7.253,13.155-9.813c1.706-1.493,2.702-2.204,2.915-2.133
		c0.071,0.071,0,0.142-0.071,0.213c-0.071,0.142-0.213,0.355-0.427,0.64l-0.427,0.569c-1.138,1.636-2.276,2.986-3.413,4.124
		l-2.56,2.56c-0.356,0.284-0.854,0.711-1.493,1.351c-1.422,1.28-2.845,2.489-4.622,3.84c-1.422,1.067-3.271,2.204-5.475,3.484
		c-1.28,0.711-1.991,1.138-2.204,1.209c-0.213,0.071-0.498,0-0.853-0.142c-0.782-0.284-1.778-1.067-2.489-2.275
		c-0.711-1.209-1.138-3.129-0.569-5.475c0.355-1.636,1.209-3.342,2.418-5.902c1.209-2.489,1.849-4.053,2.702-6.044l0.853-2.275
		c0.214-0.498,0.284-0.782,0.214-0.782c-3.2,0.64-5.689,2.133-7.893,3.627c-4.977,3.413-8.319,6.329-11.662,9.742
		c-1.564,2.204-6.399,7.182-6.471,7.608c0,0.213-1.493,0.213-1.991,0.213c-0.498,0.142-0.995-0.142-1.636-0.782
		c-0.071-0.071-0.071-0.071-0.142-0.071c-0.071-0.071-0.071-0.142-0.071-0.284L208.173,295.178z"/>
	<path id="XMLID_19_" fill="#BE9A79" d="M280.205,251.803c-0.925,2.56-2.204,5.191-3.769,7.822l-0.711,0.995
		c-0.355,0.498-0.568,0.924-0.782,1.137c-0.071,0.142-0.214,0.356-0.355,0.711l-0.498,0.853c-0.64,0.924-2.418,3.271-5.333,7.04
		c-1.422,1.707-4.906,5.689-6.4,7.04c-1.067,0.925-5.12,3.982-6.186,4.551c-0.924,0.498-1.849,0.711-2.773,0.782
		c-0.925,2.773-1.493,5.333-1.564,7.822c-0.071,2.062,1.351,4.267,3.626,5.333c4.622,2.204,9.386-1.209,13.368-5.475
		c1.92-2.062,3.555-4.338,4.764-6.755c0.142-0.355,0.284-0.64,0.355-0.924c-1.92-1.636-3.342-3.413-3.555-7.111
		c-0.071-0.924,0.071-1.707,0.284-2.346c0.142-0.214,0.498-0.498,1.067-0.854c1.067-0.64,3.058-1.209,5.262,0
		c1.777,0.924,2.346,4.764,1.422,7.893c-0.213,0.853-0.498,1.706-0.853,2.56c0.213,0.142,0.498,0.284,0.711,0.355
		c3.484,1.636,6.684-0.071,10.311-2.773c1.777-1.351,2.702-1.991,2.702-2.062c0.071,0-0.071,0.213-0.356,0.64
		c-0.64,0.924-1.849,2.418-2.702,3.058c-2.916,2.346-5.546,3.413-7.964,3.342c-1.137-0.071-2.275-0.355-3.413-0.853
		c-2.631,5.618-8.319,13.226-16.354,15.288c-2.56,0.64-5.12,0.142-7.751-1.422c-2.56-1.636-4.551-4.267-4.267-6.258
		c0.854-6.542,2.916-13.012,5.191-17.492c1.138-2.204,1.991-3.84,2.631-4.907l1.706-2.631c2.204-3.058,5.973-7.608,8.32-9.955
		c1.422-1.422,6.968-6.044,8.39-6.968c0.711-0.427,1.636-0.924,2.773-1.422c0.213-0.213,0.427-0.285,0.64-0.355
		c0.071,0,0.071,0,0.142,0l0.498-0.142c0.356,0,0.569,0.142,0.711,0.355c0.071,0.071,0.071,0.142,0.071,0.213
		C280.205,249.528,280.49,250.737,280.205,251.803z M262.855,271.642l0.142-0.142c7.04-8.462,10.666-12.871,10.879-13.155
		c1.991-2.56,4.551-6.399,5.12-8.32l-0.64,0.64c-0.355,0.356-0.64,0.569-0.782,0.711c-2.986,2.773-4.764,4.409-5.404,5.049
		l-1.422,1.351c-0.64,0.64-1.137,1.138-1.635,1.564c-0.925,0.924-1.422,1.422-2.702,3.058c-0.64,0.782-1.209,1.422-1.564,1.849
		l-0.142,0.214c-3.2,3.982-5.973,7.964-8.319,11.946c-0.64,1.067-1.138,2.133-1.636,3.2c1.28-1.067,2.204-1.92,2.844-2.489
		c0.214-0.285,0.711-0.782,1.493-1.422c1.422-1.351,1.707-1.564,2.631-2.702L262.855,271.642z M275.512,276.691
		c-0.071-1.92-1.138-2.347-1.707-2.062c-0.284,0.142-0.427,0.427-0.498,0.853c-0.071,1.707,0.711,3.342,1.636,4.764
		C275.299,278.824,275.512,277.615,275.512,276.691z"/>
	<path id="XMLID_24_" fill="#BE9A79" d="M289.166,293.33c0.782,0.711,1.636,1.067,2.56,1.138c4.267,0.213,8.604-0.711,11.59-2.133
		c2.986-1.422,4.409-2.347,5.546-3.2c0.854-0.64,2.347-1.92,4.409-3.698c2.062-1.777,3.626-2.986,4.622-3.768
		c1.706-1.351,2.631-1.991,2.702-1.991s0.071,0.071,0,0.284c-0.142,0.356-0.569,1.067-0.853,1.422
		c-0.214,0.285-1.209,1.422-3.129,3.413c-0.427,0.355-1.209,1.28-2.346,2.631c-2.347,2.844-2.489,2.915-5.831,5.759
		c-0.142,0.071-0.427,0.285-0.782,0.64c-0.427,0.355-0.782,0.64-0.995,0.853c-3.484,2.489-8.604,4.48-13.795,3.413
		c-3.982-0.782-7.466-2.915-8.533-5.831c-1.138-3.627,0.284-8.462,3.129-12.657c2.346-3.484,5.191-5.973,8.39-7.466
		c4.267-2.204,10.311-2.133,12.23,1.067c2.631,4.551-1.138,8.959-4.195,11.022c-3.413,2.346-5.902,3.129-10.381,3.982
		c-2.062,0.355-3.555,0.569-4.409,0.64c-0.498,0-1.066-0.071-1.777-0.214C287.104,290.415,287.601,291.979,289.166,293.33z
		 M305.236,276.406c0.284-0.924-1.067-2.346-2.489-2.418c-1.991-0.142-3.982,0.427-6.044,1.707c-3.697,2.346-6.471,5.475-8.39,9.315
		c-0.214,0.427-0.427,0.854-0.569,1.351c5.973-1.422,9.031-2.418,10.524-3.058c0.214-0.071,1.28-0.711,3.271-1.849
		c0.071-0.071,0.142-0.071,0.142-0.142C303.529,279.962,304.738,278.326,305.236,276.406z"/>
	<path id="XMLID_27_" fill="#BE9A79" d="M318.462,293.33c0.782,0.711,1.636,1.067,2.56,1.138c4.267,0.213,8.604-0.711,11.59-2.133
		c2.986-1.422,4.409-2.347,5.546-3.2c0.854-0.64,2.347-1.92,4.409-3.698c2.062-1.777,3.626-2.986,4.622-3.768
		c1.706-1.351,2.631-1.991,2.702-1.991s0.071,0.071,0,0.284c-0.142,0.356-0.569,1.067-0.853,1.422
		c-0.214,0.285-1.209,1.422-3.129,3.413c-0.427,0.355-1.209,1.28-2.346,2.631c-2.347,2.844-2.489,2.915-5.831,5.759
		c-0.142,0.071-0.427,0.285-0.782,0.64c-0.427,0.355-0.782,0.64-0.996,0.853c-3.484,2.489-8.604,4.48-13.795,3.413
		c-3.982-0.782-7.466-2.915-8.533-5.831c-1.138-3.627,0.284-8.462,3.129-12.657c2.346-3.484,5.191-5.973,8.39-7.466
		c4.267-2.204,10.311-2.133,12.23,1.067c2.631,4.551-1.138,8.959-4.195,11.022c-3.413,2.346-5.902,3.129-10.381,3.982
		c-2.062,0.355-3.555,0.569-4.409,0.64c-0.498,0-1.066-0.071-1.777-0.214C316.4,290.415,316.897,291.979,318.462,293.33z
		 M334.532,276.406c0.284-0.924-1.067-2.346-2.489-2.418c-1.991-0.142-3.982,0.427-6.044,1.707c-3.697,2.346-6.471,5.475-8.39,9.315
		c-0.214,0.427-0.427,0.854-0.569,1.351c5.973-1.422,9.031-2.418,10.524-3.058c0.214-0.071,1.28-0.711,3.271-1.849
		c0.071-0.071,0.142-0.071,0.142-0.142C332.826,279.962,334.035,278.326,334.532,276.406z"/>
</g>
<g id="XMLID_23_">
	<g>
		<defs>
			<path id="SVGID_1_" d="M368.92,263.752c0.085-0.016,0.177-0.033,0.282-0.058l-0.15-0.63c-0.093,0.023-0.175,0.038-0.25,0.052
				c-0.629,0.117-0.946,0.255-2.368,1.931c-0.123-0.041-0.246-0.084-0.376-0.109c0.593-1.897,0.769-2.018,1.133-2.261
				c0.072-0.048,0.15-0.1,0.237-0.164l-0.384-0.52c-0.077,0.058-0.147,0.104-0.21,0.146c-0.537,0.358-0.774,0.61-1.438,2.755
				c-1.483,0.055-2.671,1.205-2.776,2.66c-0.456-0.109-0.884-0.183-1.288-0.225c0.835-1.526,0.868-3.775-0.074-5.928
				c-1.38-3.152-2.111-7.255-4.366-6.262c-1.498,0.66-3.285,3.401-3.916,6.092c-2.336-1.167-4.418-2.159-5.143-0.442
				c-0.96,2.274,0.825,8.442,3.986,9.783c1.044,0.443,2.105,0.653,3.096,0.659c-0.439,0.687-0.884,1.445-1.361,2.279
				c1.327,0.313,2.369,0.507,3.274,0.589l-2.963,1.922c-0.15,0.096-0.192,0.297-0.096,0.447c0.062,0.096,0.165,0.148,0.271,0.148
				c0.06,0,0.121-0.017,0.175-0.052l3.309-2.146c0.009-0.006,0.014-0.016,0.023-0.023c0.009-0.007,0.02-0.01,0.028-0.019
				c0.008-0.008,0.011-0.018,0.018-0.027c0.014-0.017,0.026-0.034,0.036-0.053c0.01-0.019,0.018-0.037,0.025-0.056
				c0.006-0.02,0.01-0.039,0.012-0.06c0.001-0.014,0.005-0.027,0.005-0.041c1.112,0.011,2.061-0.179,3.175-0.573l0.513,0.522
				l-2.976,1.931c-0.15,0.096-0.192,0.297-0.096,0.447c0.062,0.096,0.165,0.148,0.271,0.148c0.06,0,0.121-0.017,0.175-0.052
				l3.309-2.146c0.009-0.006,0.014-0.016,0.023-0.023c0.009-0.007,0.02-0.01,0.028-0.019c0.008-0.008,0.011-0.018,0.018-0.027
				c0.014-0.017,0.026-0.034,0.035-0.053c0.01-0.019,0.018-0.037,0.025-0.056c0.006-0.02,0.01-0.039,0.012-0.06
				c0.003-0.021,0.003-0.041,0.001-0.061s-0.006-0.039-0.011-0.06c-0.006-0.021-0.014-0.041-0.024-0.061
				c-0.005-0.01-0.006-0.02-0.012-0.029c-0.006-0.009-0.015-0.014-0.023-0.023c-0.007-0.009-0.01-0.019-0.018-0.028l-0.589-0.6
				c0.736-0.29,1.568-0.657,2.566-1.098c0.016,0.035,0.036,0.069,0.063,0.098l1.74,1.771l-2.976,1.931
				c-0.15,0.096-0.192,0.297-0.096,0.447c0.062,0.096,0.165,0.148,0.271,0.148c0.06,0,0.121-0.017,0.175-0.052l3.309-2.146
				c0.009-0.006,0.014-0.016,0.023-0.023c0.009-0.007,0.02-0.01,0.028-0.019c0.008-0.008,0.011-0.018,0.018-0.027
				c0.014-0.017,0.026-0.034,0.035-0.053c0.01-0.019,0.018-0.037,0.025-0.056c0.006-0.02,0.01-0.039,0.012-0.06
				c0.003-0.021,0.003-0.041,0.001-0.061c-0.002-0.021-0.006-0.039-0.011-0.06c-0.006-0.021-0.014-0.041-0.024-0.061
				c-0.005-0.01-0.006-0.02-0.012-0.029c-0.006-0.009-0.015-0.014-0.023-0.023c-0.007-0.009-0.01-0.02-0.018-0.028l-1.936-1.971
				c1.224-0.579,2.445-1.398,3.144-2.478c0.363-0.48,0.585-1.069,0.585-1.715c0-0.002-0.001-0.005-0.001-0.006
				c0.001-0.003,0.001-0.005,0.001-0.006h-0.001c-0.005-1.02-0.55-1.909-1.364-2.415C368.287,263.87,368.496,263.831,368.92,263.752
				"/>
		</defs>
		<clipPath id="SVGID_2_">
			<use xlink:href="#SVGID_1_"  overflow="visible"/>
		</clipPath>
		<g id="XMLID_34_" clip-path="url(#SVGID_2_)">
			<rect id="XMLID_31_" x="346.222" y="253.635" fill="#AF8866" width="24.332" height="24.332"/>
		</g>
	</g>
</g>
</svg>
