<?xml version="1.0" encoding="utf-8"?>
<!-- Generator: Adobe Illustrator 19.0.0, SVG Export Plug-In . SVG Version: 6.00 Build 0)  -->
<!DOCTYPE svg PUBLIC "-//W3C//DTD SVG 1.1//EN" "http://www.w3.org/Graphics/SVG/1.1/DTD/svg11.dtd">
<svg version="1.1" id="Layer_1" xmlns="http://www.w3.org/2000/svg" xmlns:xlink="http://www.w3.org/1999/xlink" x="0px" y="0px"
	 width="24.332px" height="24.332px" viewBox="0 0 24.332 24.332" enable-background="new 0 0 24.332 24.332" xml:space="preserve">
<g id="XMLID_23_">
	<g>
		<defs>
			<path id="SVGID_1_" d="M22.698,10.117c0.085-0.016,0.177-0.033,0.282-0.058l-0.15-0.63c-0.093,0.023-0.175,0.038-0.25,0.052
				c-0.629,0.117-0.946,0.255-2.368,1.931c-0.123-0.041-0.246-0.084-0.376-0.109c0.593-1.897,0.769-2.018,1.133-2.261
				c0.072-0.048,0.15-0.1,0.237-0.164l-0.384-0.52c-0.077,0.058-0.147,0.104-0.21,0.146c-0.537,0.358-0.774,0.61-1.438,2.755
				c-1.483,0.055-2.671,1.205-2.776,2.66c-0.456-0.109-0.884-0.183-1.288-0.225c0.835-1.526,0.868-3.775-0.074-5.928
				c-1.38-3.152-2.111-7.255-4.366-6.262c-1.498,0.66-3.285,3.401-3.916,6.092C4.418,6.429,2.336,5.437,1.611,7.154
				c-0.96,2.274,0.825,8.442,3.986,9.783c1.044,0.443,2.105,0.653,3.096,0.659c-0.439,0.687-0.884,1.445-1.361,2.279
				c1.327,0.313,2.369,0.507,3.274,0.589l-2.963,1.922c-0.15,0.096-0.192,0.297-0.096,0.447c0.062,0.096,0.165,0.148,0.271,0.148
				c0.06,0,0.121-0.017,0.175-0.052l3.309-2.146c0.009-0.006,0.014-0.016,0.023-0.023s0.02-0.01,0.028-0.019
				c0.008-0.008,0.011-0.018,0.018-0.027c0.014-0.017,0.026-0.034,0.036-0.053c0.01-0.019,0.018-0.037,0.025-0.056
				c0.006-0.02,0.01-0.039,0.012-0.06c0.001-0.014,0.005-0.027,0.005-0.041c1.112,0.011,2.061-0.179,3.175-0.573l0.513,0.522
				l-2.976,1.931c-0.15,0.096-0.192,0.297-0.096,0.447c0.062,0.096,0.165,0.148,0.271,0.148c0.06,0,0.121-0.017,0.175-0.052
				l3.309-2.146c0.009-0.006,0.014-0.016,0.023-0.023s0.02-0.01,0.028-0.019c0.008-0.008,0.011-0.018,0.018-0.027
				c0.014-0.017,0.026-0.034,0.035-0.053c0.01-0.019,0.018-0.037,0.025-0.056c0.006-0.02,0.01-0.039,0.012-0.06
				c0.003-0.021,0.003-0.041,0.001-0.061s-0.006-0.039-0.011-0.06c-0.006-0.021-0.014-0.041-0.024-0.061
				c-0.005-0.01-0.006-0.02-0.012-0.029c-0.006-0.009-0.015-0.014-0.023-0.023c-0.007-0.009-0.01-0.019-0.018-0.028l-0.589-0.6
				c0.736-0.29,1.568-0.657,2.566-1.098c0.016,0.035,0.036,0.069,0.063,0.098l1.74,1.771l-2.976,1.931
				c-0.15,0.096-0.192,0.297-0.096,0.447c0.062,0.096,0.165,0.148,0.271,0.148c0.06,0,0.121-0.017,0.175-0.052l3.309-2.146
				c0.009-0.006,0.014-0.016,0.023-0.023s0.02-0.01,0.028-0.019c0.008-0.008,0.011-0.018,0.018-0.027
				c0.014-0.017,0.026-0.034,0.035-0.053c0.01-0.019,0.018-0.037,0.025-0.056c0.006-0.02,0.01-0.039,0.012-0.06
				c0.003-0.021,0.003-0.041,0.001-0.061c-0.002-0.021-0.006-0.039-0.011-0.06c-0.006-0.021-0.014-0.041-0.024-0.061
				c-0.005-0.01-0.006-0.02-0.012-0.029c-0.006-0.009-0.015-0.014-0.023-0.023c-0.007-0.009-0.01-0.02-0.018-0.028l-1.936-1.971
				c1.224-0.579,2.445-1.398,3.144-2.478c0.363-0.48,0.585-1.069,0.585-1.715c0-0.002-0.001-0.005-0.001-0.006
				c0.001-0.003,0.001-0.005,0.001-0.006h-0.001c-0.005-1.02-0.55-1.909-1.364-2.415C22.065,10.235,22.274,10.196,22.698,10.117"/>
		</defs>
		<clipPath id="SVGID_2_">
			<use xlink:href="#SVGID_1_"  overflow="visible"/>
		</clipPath>
		<rect id="XMLID_31_" clip-path="url(#SVGID_2_)" fill="#AF8866" width="24.332" height="24.332"/>
	</g>
</g>
</svg>
